<svg width="960" height="280" viewBox="0 0 960 280" fill="none" xmlns="http://www.w3.org/2000/svg"><rect width="960" height="280" fill="url(#bg)"/><path d="M620 198C669 136 724 99 816 64V98C743 127 694 162 651 219L620 198Z" fill="#F6C55B"/><path d="M566 214C616 165 674 132 798 118V148C689 159 638 185 590 232L566 214Z" fill="#90EAF4"/><rect x="56" y="58" width="252" height="154" rx="30" fill="#FFFFFF" fill-opacity="0.72"/><rect x="84" y="88" width="116" height="18" rx="9" fill="#F6C55B"/><rect x="84" y="126" width="188" height="18" rx="9" fill="#90EAF4" fill-opacity="0.56"/><rect x="84" y="164" width="158" height="18" rx="9" fill="#CCA8FF" fill-opacity="0.48"/><rect x="84" y="190" width="138" height="18" rx="9" fill="#F6C55B" fill-opacity="0.8"/><defs><linearGradient id="bg" x1="18" y1="18" x2="902" y2="280" gradientUnits="userSpaceOnUse"><stop stop-color="#FFF8E7"/><stop offset="0.52" stop-color="#C2F8FF"/><stop offset="1" stop-color="#F1E3FF"/></linearGradient></defs></svg>
