<svg width="960" height="280" viewBox="0 0 960 280" fill="none" xmlns="http://www.w3.org/2000/svg"><rect width="960" height="280" fill="url(#bg)"/><path d="M698 72C754 72 801 94 833 137H791C770 111 738 101 702 101C648 101 607 131 592 178H555C574 110 633 72 698 72Z" fill="#CAA2FF"/><path d="M556 178L564 136L597 162L556 178Z" fill="#CAA2FF"/><circle cx="818" cy="172" r="58" fill="#96EDF4" fill-opacity="0.62"/><circle cx="855" cy="126" r="24" fill="#F6C55B"/><rect x="56" y="58" width="252" height="154" rx="30" fill="#FFFFFF" fill-opacity="0.7"/><rect x="84" y="88" width="118" height="18" rx="9" fill="#CAA2FF"/><rect x="84" y="126" width="182" height="18" rx="9" fill="#90EAF4" fill-opacity="0.56"/><rect x="84" y="164" width="150" height="40" rx="20" fill="#F6C55B"/><defs><linearGradient id="bg" x1="18" y1="18" x2="905" y2="280" gradientUnits="userSpaceOnUse"><stop stop-color="#FFF7E8"/><stop offset="0.54" stop-color="#D0F8FF"/><stop offset="1" stop-color="#F2E1FF"/></linearGradient></defs></svg>
