<svg width="960" height="260" viewBox="0 0 960 260" fill="none" xmlns="http://www.w3.org/2000/svg"><rect width="960" height="260" fill="url(#bg)"/><path d="M716 66C774 66 824 93 854 142H807C785 114 753 100 716 100C658 100 611 136 594 188H559C578 117 641 66 716 66Z" fill="#C8A3FF"/><path d="M561 188L569 145L601 174L561 188Z" fill="#C8A3FF"/><circle cx="811" cy="170" r="56" fill="#9FEFFF" fill-opacity="0.54"/><circle cx="856" cy="126" r="24" fill="#F6C55B"/><rect x="54" y="56" width="260" height="148" rx="28" fill="#FFFFFF" fill-opacity="0.68"/><rect x="82" y="84" width="120" height="18" rx="9" fill="#C8A3FF"/><rect x="82" y="120" width="184" height="18" rx="9" fill="#73DAE7" fill-opacity="0.58"/><rect x="82" y="156" width="146" height="40" rx="20" fill="#F6C55B"/><defs><linearGradient id="bg" x1="56" y1="16" x2="907" y2="260" gradientUnits="userSpaceOnUse"><stop stop-color="#FFF8EA"/><stop offset="0.48" stop-color="#D4F8FF"/><stop offset="1" stop-color="#F0E0FF"/></linearGradient></defs></svg>
