<svg width="960" height="260" viewBox="0 0 960 260" fill="none" xmlns="http://www.w3.org/2000/svg"><rect width="960" height="260" fill="url(#bg)"/><path d="M652 202C710 116 760 92 852 56V92C788 120 746 148 700 226L652 202Z" fill="#F6C55B" fill-opacity="0.84"/><path d="M576 219C636 152 701 120 839 98V132C708 154 661 187 612 244L576 219Z" fill="#91ECF5" fill-opacity="0.8"/><circle cx="848" cy="64" r="28" fill="#FFF7E4"/><rect x="52" y="50" width="258" height="156" rx="30" fill="#FFFFFF" fill-opacity="0.7"/><rect x="78" y="80" width="110" height="18" rx="9" fill="#F6C55B"/><rect x="78" y="120" width="194" height="16" rx="8" fill="#91ECF5" fill-opacity="0.62"/><rect x="78" y="149" width="164" height="16" rx="8" fill="#D0BAFF" fill-opacity="0.56"/><rect x="78" y="176" width="136" height="18" rx="9" fill="#F6C55B" fill-opacity="0.76"/><defs><linearGradient id="bg" x1="70" y1="18" x2="900" y2="260" gradientUnits="userSpaceOnUse"><stop stop-color="#FFF9E8"/><stop offset="0.54" stop-color="#C4F6FF"/><stop offset="1" stop-color="#EDE1FF"/></linearGradient></defs></svg>
