<svg width="960" height="220" viewBox="0 0 960 220" fill="none" xmlns="http://www.w3.org/2000/svg"><rect width="960" height="220" fill="url(#bg)"/><path d="M622 176C667 124 720 90 812 56V88C736 117 689 147 651 199L622 176Z" fill="#F6C55B"/><path d="M563 181C611 141 668 112 794 102V132C679 143 633 165 587 204L563 181Z" fill="#90EAF4"/><circle cx="828" cy="62" r="26" fill="#FFF8E8"/><rect x="58" y="58" width="214" height="104" rx="24" fill="#FFFDF6" fill-opacity="0.68"/><rect x="82" y="86" width="116" height="18" rx="9" fill="#F6C55B"/><rect x="82" y="122" width="170" height="18" rx="9" fill="#90EAF4" fill-opacity="0.58"/><defs><linearGradient id="bg" x1="37" y1="14" x2="915" y2="220" gradientUnits="userSpaceOnUse"><stop stop-color="#FFF9E7"/><stop offset="0.5" stop-color="#C0F7FF"/><stop offset="1" stop-color="#EFE2FF"/></linearGradient></defs></svg>
