<svg width="960" height="220" viewBox="0 0 960 220" fill="none" xmlns="http://www.w3.org/2000/svg"><rect width="960" height="220" fill="url(#bg)"/><path d="M700 62C756 62 801 83 832 124H789C765 100 738 92 704 92C653 92 614 120 600 164H561C579 100 634 62 700 62Z" fill="#CAA2FF"/><path d="M564 164L570 127L601 152L564 164Z" fill="#CAA2FF"/><circle cx="821" cy="156" r="48" fill="#94EDF4" fill-opacity="0.6"/><circle cx="856" cy="114" r="24" fill="#F6C55B"/><rect x="58" y="58" width="214" height="104" rx="24" fill="#FFFDF6" fill-opacity="0.68"/><rect x="82" y="86" width="124" height="18" rx="9" fill="#CAA2FF"/><rect x="82" y="122" width="160" height="18" rx="9" fill="#90EAF4" fill-opacity="0.58"/><defs><linearGradient id="bg" x1="24" y1="18" x2="914" y2="220" gradientUnits="userSpaceOnUse"><stop stop-color="#FFF7E9"/><stop offset="0.48" stop-color="#D0F9FF"/><stop offset="1" stop-color="#F0E0FF"/></linearGradient></defs></svg>
